<?xml version="1.0" standalone="no"?>
<!DOCTYPE svg PUBLIC "-//W3C//DTD SVG 20010904//EN"
 "http://www.w3.org/TR/2001/REC-SVG-20010904/DTD/svg10.dtd">
<svg version="1.0" xmlns="http://www.w3.org/2000/svg"
 width="670.000000pt" height="231.000000pt" viewBox="0 0 670.000000 231.000000"
 preserveAspectRatio="xMidYMid meet">

<g transform="translate(0.000000,231.000000) scale(0.100000,-0.100000)"
fill="#000000" stroke="none">
<path d="M0 1155 l0 -1155 3350 0 3350 0 0 1155 0 1155 -3350 0 -3350 0 0
-1155z m1424 478 c-18 -87 -43 -206 -56 -265 l-22 -108 -73 0 c-57 0 -73 3
-73 14 0 16 97 483 105 504 3 8 28 12 78 12 l74 0 -33 -157z m1526 153 c0 -2
-25 -120 -55 -261 -30 -142 -55 -260 -55 -262 0 -1 -32 -3 -71 -3 -62 0 -70 2
-65 18 6 22 106 496 106 505 0 4 32 7 70 7 39 0 70 -2 70 -4z m240 -8 c0 -7
-3 -30 -6 -50 l-7 -38 -70 0 -70 0 7 38 c3 20 6 43 6 50 0 8 21 12 70 12 49 0
70 -4 70 -12z m860 -35 l29 -48 -47 -3 c-40 -3 -49 0 -65 22 l-19 26 -32 -25
c-25 -19 -45 -25 -81 -25 l-49 0 55 50 c52 48 56 49 116 50 l63 0 30 -47z
m1250 35 c0 -7 -3 -30 -6 -50 l-7 -38 -72 0 -72 0 10 50 10 50 68 0 c49 0 69
-4 69 -12z m-3110 -60 c0 -7 -4 -30 -9 -50 l-9 -38 45 0 c37 0 44 -3 40 -17
-3 -10 -8 -30 -11 -45 -6 -25 -11 -28 -50 -28 l-43 0 -17 -80 c-10 -45 -15
-87 -12 -95 3 -9 19 -15 41 -15 30 0 35 -3 32 -17 -3 -10 -8 -30 -11 -45 -6
-28 -7 -28 -84 -28 -94 0 -122 15 -122 65 0 30 22 154 36 198 4 14 -1 17 -31
17 l-36 0 7 38 c9 50 10 52 49 52 28 0 34 4 39 28 5 22 17 31 64 49 68 25 82
27 82 11z m-335 -102 c38 -25 39 -67 7 -216 l-28 -135 -67 -3 c-79 -3 -76 -10
-47 122 28 124 27 154 -5 162 -30 7 -72 -17 -84 -49 -5 -12 -19 -70 -31 -129
l-23 -108 -69 0 c-52 0 -69 3 -66 13 3 6 20 90 39 184 l34 173 69 0 c68 0 68
0 63 -25 -4 -24 -3 -25 14 -9 47 43 144 53 194 20z m745 6 c51 -25 74 -78 65
-148 l-6 -54 -135 0 -134 0 0 -33 c0 -42 15 -57 56 -57 23 0 38 8 52 25 17 22
28 25 81 25 34 0 61 -3 61 -6 0 -3 -7 -18 -16 -33 -24 -40 -73 -69 -138 -82
-111 -23 -203 19 -221 99 -6 28 5 95 24 145 15 40 73 99 116 118 52 24 148 25
195 1z m865 3 c20 -8 38 -22 42 -32 6 -15 8 -14 13 7 5 23 11 25 72 28 l66 3
-35 -163 c-46 -222 -50 -234 -83 -272 -48 -55 -118 -79 -216 -74 -101 4 -137
24 -142 81 l-3 37 64 0 c56 0 65 -3 70 -20 4 -16 14 -20 44 -20 52 0 71 16 88
73 8 26 13 47 12 47 -1 0 -24 -11 -51 -25 -56 -28 -83 -31 -129 -11 -47 19
-69 49 -74 101 -13 108 47 206 146 241 47 17 74 17 116 -1z m555 -3 c51 -25
73 -76 65 -147 l-7 -55 -134 0 -134 0 0 -33 c0 -18 5 -38 12 -45 20 -20 67
-14 94 13 21 21 34 25 84 25 33 0 60 -4 60 -9 0 -18 -53 -72 -89 -90 -52 -27
-122 -35 -180 -21 -99 23 -129 92 -92 210 35 111 112 169 226 170 37 0 73 -7
95 -18z m482 8 c67 -19 73 -63 33 -246 -14 -64 -25 -117 -25 -120 0 -2 -32 -4
-71 -4 -53 0 -70 3 -67 13 3 6 15 64 28 129 20 97 22 119 11 132 -23 28 -80
15 -96 -21 -5 -10 -20 -70 -34 -133 l-27 -115 -67 -3 c-37 -2 -67 1 -67 5 0 4
16 88 37 186 l37 177 68 0 68 0 -6 -27 c-7 -27 -6 -27 12 -11 25 22 83 47 109
48 11 0 37 -5 57 -10z m458 -6 c43 -18 70 -55 70 -99 0 -24 -2 -25 -70 -25
-68 0 -70 1 -70 25 0 30 -19 40 -56 31 -45 -12 -91 -156 -65 -205 22 -41 78
-19 95 37 7 20 14 22 70 22 34 0 65 -3 69 -6 9 -9 -12 -56 -36 -82 -41 -45
-96 -66 -172 -66 -122 -1 -181 56 -171 161 5 63 48 146 89 175 68 48 172 62
247 32z m706 -10 c41 -30 44 -58 18 -179 -13 -61 -23 -125 -23 -142 l-1 -33
-70 0 -70 0 6 28 7 27 -24 -22 c-35 -32 -100 -46 -149 -33 -124 33 -74 198 70
229 28 6 70 11 94 11 36 0 45 4 49 21 9 33 -3 49 -34 49 -19 0 -34 -8 -45 -25
-15 -22 -23 -25 -80 -25 -35 0 -64 2 -64 5 0 18 33 66 53 77 51 30 86 37 159
35 59 -2 83 -7 104 -23z m-2506 9 c-1 -5 -18 -87 -39 -183 l-38 -175 -68 -3
-68 -3 6 38 c4 21 21 104 38 186 l32 147 68 0 c38 0 69 -3 69 -7z m2105 -15
c-3 -13 -19 -88 -35 -168 -17 -80 -33 -153 -36 -162 -4 -15 -17 -18 -70 -18
-55 0 -64 3 -64 18 0 10 14 81 30 158 17 76 33 151 36 167 5 26 7 27 75 27 67
0 69 -1 64 -22z m-3778 -599 c47 -15 73 -53 73 -105 l0 -44 -75 0 c-72 0 -75
1 -75 23 0 33 -18 47 -60 47 -26 0 -43 -7 -59 -24 -36 -38 -21 -63 47 -82 167
-46 192 -63 192 -131 0 -120 -100 -195 -265 -196 -138 -2 -198 35 -199 121
l-1 47 73 3 c69 3 72 2 72 -19 0 -60 97 -83 145 -34 48 47 26 71 -89 99 -91
22 -124 40 -142 79 -30 64 16 156 99 199 72 36 178 43 264 17z m967 11 c22 -5
51 -20 65 -35 54 -54 22 -158 -60 -195 l-39 -17 37 -24 c48 -30 60 -65 44
-118 -16 -54 -52 -95 -103 -117 -58 -23 -378 -35 -378 -13 0 11 85 422 105
507 5 22 8 22 148 22 78 0 160 -5 181 -10z m-398 -50 l-10 -50 -128 0 -127 0
-10 -37 c-21 -75 -25 -73 107 -73 l119 0 -11 -50 -10 -50 -122 0 -122 0 -6
-37 c-4 -21 -9 -46 -12 -55 -5 -17 6 -18 125 -18 72 0 131 -2 131 -5 0 -2 -5
-27 -11 -55 l-11 -50 -204 0 c-112 0 -204 2 -204 5 0 3 25 120 55 261 30 141
55 258 55 260 0 2 91 4 203 4 l204 0 -11 -50z m964 35 c38 -20 55 -70 41 -123
-16 -57 -45 -88 -104 -111 -39 -15 -46 -20 -26 -20 14 -1 34 -7 45 -15 17 -13
19 -26 17 -125 -2 -61 -1 -111 0 -111 2 0 75 117 163 260 l159 259 92 1 c79 0
92 -2 97 -17 3 -10 24 -119 46 -243 23 -124 44 -235 47 -247 5 -22 3 -23 -80
-23 l-84 0 -7 31 c-3 17 -6 42 -6 55 0 24 -1 24 -109 24 l-109 0 -31 -55 -31
-55 -156 0 -156 0 8 90 c8 109 2 120 -67 120 -42 0 -49 -3 -54 -22 -2 -13 -13
-59 -23 -103 l-17 -80 -73 -3 c-57 -2 -72 0 -72 12 0 13 97 478 105 504 7 19
346 17 385 -3z m1126 -2 c-2 -10 -7 -33 -11 -50 l-7 -33 -128 0 -128 0 -11
-50 c-6 -28 -11 -53 -11 -55 0 -3 54 -5 121 -5 110 0 120 -2 115 -17 -2 -10
-7 -32 -11 -50 l-6 -32 -122 -3 -122 -3 -11 -52 -12 -53 129 0 c144 0 139 3
118 -72 l-10 -38 -199 0 c-109 0 -201 3 -203 8 -2 4 21 123 52 265 l55 257
204 0 c189 0 203 -1 198 -17z"/>
<path d="M2439 1541 c-43 -43 -38 -51 36 -51 l65 0 0 30 c0 19 -7 33 -19 40
-31 16 -51 12 -82 -19z"/>
<path d="M3386 1530 c-32 -39 -51 -106 -39 -140 12 -35 72 -41 102 -9 39 42
53 135 25 163 -25 25 -59 19 -88 -14z"/>
<path d="M3859 1541 c-43 -43 -38 -51 36 -51 l65 0 0 30 c0 19 -7 33 -19 40
-31 16 -51 12 -82 -19z"/>
<path d="M5450 1410 c-34 -34 -20 -80 23 -80 25 0 77 53 77 79 0 18 -6 21 -40
21 -27 0 -47 -7 -60 -20z"/>
<path d="M2246 893 c-3 -21 -9 -49 -13 -62 -6 -23 -5 -24 55 -19 70 5 102 26
102 68 0 39 -18 50 -81 50 l-56 0 -7 -37z"/>
<path d="M2207 706 c-4 -9 -9 -39 -13 -67 l-7 -52 62 5 c64 5 93 22 105 64 11
37 -16 57 -81 62 -48 3 -61 1 -66 -12z"/>
<path d="M2765 908 c-3 -13 -9 -42 -14 -65 l-9 -43 62 0 c52 0 66 4 84 23 13
14 22 36 22 55 0 27 -4 32 -37 41 -65 18 -102 14 -108 -11z"/>
<path d="M3358 878 c-9 -18 -35 -66 -58 -105 l-41 -73 72 0 71 0 -7 88 c-10
118 -16 132 -37 90z"/>
</g>
</svg>
