<svg width="162" height="45" viewBox="0 0 162 45" fill="none" xmlns="http://www.w3.org/2000/svg">
<path d="M8.59566 0.101501L13.842 0.101501L9.94606 18.3849H4.69971L8.59566 0.101501Z" fill="#CCCCCC"/>
<path d="M15.4201 8.38249L15.8794 5.67361L20.6664 5.67361L20.2836 7.62332C20.4878 7.38648 20.7196 7.13907 20.9833 6.87685C21.247 6.61463 21.5681 6.37356 21.9509 6.15575C22.3337 5.93582 22.7739 5.75396 23.2758 5.61017C23.7755 5.46637 24.3582 5.39447 25.0196 5.39447C25.8001 5.39447 26.438 5.48329 26.9293 5.66092C27.4205 5.83855 27.8118 6.07539 28.101 6.36933C28.3903 6.66538 28.588 7.00161 28.6986 7.38225C28.8092 7.76289 28.8645 8.14776 28.8645 8.53474C28.8645 8.92173 28.8305 9.3066 28.7624 9.68723C28.6944 10.0679 28.6348 10.402 28.5838 10.6875L26.9293 18.3848H22.1423L23.6947 11.0914C23.7457 10.8714 23.7968 10.6071 23.8478 10.2941C23.8989 9.98117 23.8904 9.68512 23.8223 9.4081C23.7543 9.13108 23.6096 8.89424 23.3885 8.69969C23.1673 8.50514 22.8122 8.40786 22.3188 8.40786C21.7744 8.40786 21.3342 8.52628 20.9939 8.76313C20.6537 8.99997 20.3857 9.27065 20.1922 9.57304C19.9965 9.87544 19.8519 10.1757 19.7583 10.4718C19.6648 10.7678 19.6095 10.9751 19.5925 11.0914L18.04 18.3848H13.2786L15.4179 8.38249H15.4201Z" fill="#CCCCCC"/>
<path d="M41.8005 5.72227L41.1647 8.76104L38.0832 8.76104L37.1411 13.168C37.056 13.5571 36.9965 13.8933 36.9625 14.1809C36.9284 14.4685 36.9497 14.7054 37.0263 14.8893C37.1028 15.0754 37.2559 15.215 37.4856 15.308C37.7153 15.4011 38.0577 15.4476 38.517 15.4476C38.7042 15.4476 38.8785 15.4434 39.038 15.4349C39.1997 15.4265 39.4251 15.4053 39.7122 15.3715L39.0763 18.3595C38.7361 18.4102 38.3299 18.461 37.8535 18.5117C37.3772 18.5625 36.7328 18.5879 35.9183 18.5879C34.9677 18.5879 34.2128 18.5075 33.6513 18.3468C33.092 18.1861 32.6752 17.9514 32.403 17.6384C32.1308 17.3254 31.9862 16.9384 31.9692 16.4732C31.9522 16.0101 32.0117 15.473 32.1478 14.8661L33.4472 8.76315H31.0271L31.663 5.72438H34.1575L34.5913 3.74929L39.5825 1.92645L38.768 5.72438H41.7984L41.8005 5.72227Z" fill="#CCCCCC"/>
<path d="M46.4622 12.9903C46.4282 13.1595 46.3899 13.4175 46.3474 13.7622C46.3049 14.109 46.3219 14.4516 46.3984 14.7878C46.475 15.1261 46.6494 15.4243 46.9216 15.6865C47.1938 15.9487 47.634 16.0799 48.2465 16.0799C48.8908 16.0799 49.4395 15.9191 49.8882 15.5977C50.3369 15.2784 50.6559 14.8216 50.8431 14.2295H55.3004C55.0453 15.0225 54.6603 15.7034 54.1414 16.2681C53.6226 16.8348 53.025 17.2937 52.3466 17.6489C51.6682 18.0042 50.9281 18.2622 50.1307 18.4208C49.3332 18.5815 48.5166 18.6619 47.6872 18.6619C45.4457 18.6619 43.8593 18.1163 42.9257 17.0293C41.9921 15.9403 41.7539 14.3416 42.2133 12.2312C42.4344 11.1675 42.7683 10.2053 43.2192 9.34466C43.6679 8.48399 44.2378 7.74597 44.9247 7.12849C45.6116 6.51312 46.4218 6.03944 47.3576 5.70955C48.2911 5.37967 49.3438 5.21472 50.5156 5.21472C51.3981 5.21472 52.1531 5.29931 52.7825 5.46848C53.4099 5.63765 53.9373 5.87027 54.3605 6.1642C54.7837 6.46026 55.1154 6.80283 55.3536 7.18982C55.5918 7.57891 55.7704 7.99973 55.8895 8.4565C56.0596 8.99574 56.1192 9.60899 56.0682 10.292C56.0171 10.9751 55.8725 11.8738 55.6343 12.9882L46.4665 12.9882L46.4622 12.9903ZM51.6831 10.4062C51.7001 10.2201 51.7214 9.97905 51.7469 9.68512C51.7724 9.39118 51.7384 9.09935 51.6448 8.81176C51.5512 8.52417 51.3768 8.27675 51.1238 8.06529C50.8686 7.85382 50.4773 7.7502 49.952 7.7502C49.4267 7.7502 48.9887 7.86016 48.6399 8.07797C48.2911 8.2979 48.0104 8.55589 47.7999 8.84982C47.5872 9.14588 47.4256 9.43982 47.315 9.73587C47.2044 10.0319 47.1236 10.2561 47.0726 10.4062L51.681 10.4062H51.6831Z" fill="#CCCCCC"/>
<path d="M61.155 0.101501L65.942 0.101501L62.046 18.3849H57.259L61.155 0.101501Z" fill="#CCCCCC"/>
<path d="M68.462 5.67153L73.249 5.67153L70.5248 18.3828H65.7378L68.462 5.67153ZM69.5827 0.150146L74.4718 0.150146L73.7594 3.54418L68.8703 3.54418L69.5827 0.150146Z" fill="#CCCCCC"/>
<path d="M90.5915 5.5954L88.0714 17.446C87.9864 17.8351 87.8758 18.2305 87.7397 18.6365C87.6036 19.0425 87.4207 19.438 87.191 19.8271C86.9613 20.2162 86.6721 20.5947 86.3255 20.9669C85.9767 21.3391 85.5578 21.6753 85.0644 21.9798C84.42 22.3689 83.6587 22.7009 82.7847 22.98C81.9106 23.2592 80.8112 23.3987 79.4863 23.3987C79.129 23.3987 78.7228 23.3818 78.2635 23.348C77.8041 23.3142 77.3469 23.2423 76.8876 23.1323C76.4282 23.0223 75.988 22.8701 75.5627 22.6755C75.1374 22.481 74.7737 22.223 74.4675 21.9037C74.2463 21.6499 74.089 21.394 73.9954 21.1318C73.9018 20.8696 73.8423 20.6116 73.8167 20.36C73.7912 20.1062 73.7912 19.8694 73.8167 19.6516C73.8423 19.4316 73.872 19.2371 73.9061 19.07H78.4145C78.3294 19.5585 78.4272 19.9518 78.708 20.2479C78.9887 20.5418 79.4757 20.692 80.1732 20.692C80.7665 20.692 81.2556 20.5947 81.6384 20.4001C82.0212 20.2056 82.3253 19.9561 82.555 19.6537C82.7847 19.3513 82.959 19.015 83.0781 18.6534C83.1972 18.2897 83.2993 17.9408 83.3844 17.6025L83.7416 15.9319C83.2993 16.4225 82.8506 16.801 82.3912 17.0717C81.9319 17.3423 81.4959 17.5432 81.0791 17.6786C80.6623 17.8139 80.2859 17.8985 79.9456 17.9323C79.6054 17.9662 79.3438 17.9831 79.1567 17.9831C78.4783 17.9831 77.8233 17.8731 77.1959 17.6532C76.5686 17.4333 76.0369 17.0759 75.6052 16.5768C75.1714 16.0799 74.8715 15.4286 74.7014 14.6271C74.5313 13.8257 74.5738 12.8423 74.829 11.6772C75.0162 10.8165 75.3032 10.0024 75.6945 9.23473C76.0837 8.46711 76.5813 7.80099 77.1832 7.23426C77.785 6.66965 78.4825 6.21711 79.2715 5.87877C80.0605 5.54042 80.9388 5.37125 81.9064 5.37125C82.5167 5.37125 83.0399 5.43469 83.4716 5.56157C83.9054 5.68845 84.269 5.85762 84.5668 6.06909C84.8645 6.28055 85.0984 6.51316 85.2664 6.76481C85.4366 7.01857 85.5727 7.27233 85.6747 7.52397L86.083 5.59963L90.5915 5.59963V5.5954ZM84.5817 11.5714C84.6157 11.4023 84.6625 11.1252 84.722 10.7361C84.7816 10.347 84.7816 9.9516 84.722 9.54559C84.6625 9.13957 84.5093 8.78643 84.2627 8.48191C84.016 8.1774 83.6055 8.02515 83.0271 8.02515C82.2126 8.02515 81.5278 8.35926 80.977 9.02538C80.4263 9.6915 80.0307 10.5564 79.7925 11.6222C79.7075 11.9605 79.6479 12.3348 79.6139 12.7493C79.5799 13.1638 79.6096 13.5465 79.7032 13.9018C79.7968 14.2571 79.9797 14.5552 80.2497 14.8005C80.522 15.0458 80.9196 15.1685 81.447 15.1685C82.0233 15.1685 82.504 15.0247 82.8867 14.7371C83.2695 14.4495 83.5779 14.109 83.8161 13.7115C84.0543 13.316 84.2265 12.9185 84.3392 12.5209C84.4498 12.1234 84.5306 11.8083 84.5817 11.5714Z" fill="#CCCCCC"/>
<path d="M95.9632 12.9904C95.9292 13.1595 95.8909 13.4175 95.8484 13.7622C95.8059 14.109 95.8229 14.4516 95.8994 14.7878C95.976 15.1262 96.1504 15.4243 96.4226 15.6866C96.6948 15.9488 97.135 16.0799 97.7474 16.0799C98.3918 16.0799 98.9405 15.9192 99.3892 15.5977C99.8379 15.2784 100.157 14.8217 100.344 14.2296H104.801C104.546 15.0226 104.161 15.7035 103.642 16.2681C103.124 16.8348 102.526 17.2937 101.848 17.649C101.169 18.0042 100.429 18.2622 99.6316 18.4208C98.8341 18.5815 98.0175 18.6619 97.1881 18.6619C94.9467 18.6619 93.3603 18.1163 92.4267 17.0294C91.4931 15.9403 91.2549 14.3416 91.7143 12.2312C91.9354 11.1675 92.2693 10.2054 92.7201 9.34469C93.1689 8.48402 93.7388 7.74601 94.4257 7.12853C95.1126 6.51316 95.9228 6.03947 96.8585 5.70959C97.7921 5.3797 98.8448 5.21476 100.017 5.21476C100.899 5.21476 101.654 5.29934 102.284 5.46852C102.911 5.63769 103.438 5.8703 103.861 6.16424C104.285 6.46029 104.616 6.80287 104.855 7.18985C105.093 7.57895 105.271 7.99977 105.39 8.45653C105.561 8.99577 105.62 9.60902 105.569 10.2921C105.518 10.9751 105.373 11.8738 105.135 12.9883L95.9675 12.9883L95.9632 12.9904ZM103.196 0L105.463 3.67105L102.152 3.67105L100.699 1.72133L98.3812 3.67105L95.07 3.67105L98.8937 0L103.198 0L103.196 0ZM101.184 10.4084C101.201 10.2223 101.222 9.9812 101.248 9.68727C101.273 9.39333 101.239 9.10151 101.146 8.81391C101.052 8.52632 100.878 8.2789 100.625 8.06744C100.37 7.85597 99.9783 7.75235 99.453 7.75235C98.9277 7.75235 98.4896 7.86231 98.1409 8.08012C97.7921 8.30005 97.5114 8.55804 97.3009 8.85198C97.0882 9.14803 96.9266 9.44197 96.816 9.73802C96.7054 10.0341 96.6246 10.2582 96.5736 10.4084L101.182 10.4084H101.184Z" fill="#CCCCCC"/>
<path d="M108.774 8.38249L109.233 5.67361L114.02 5.67361L113.638 7.62332C113.842 7.38648 114.074 7.13907 114.337 6.87685C114.601 6.61463 114.922 6.37356 115.305 6.15575C115.688 5.93582 116.128 5.75396 116.63 5.61017C117.13 5.46637 117.712 5.39447 118.374 5.39447C119.154 5.39447 119.792 5.48329 120.283 5.66092C120.775 5.83855 121.166 6.07539 121.455 6.36933C121.744 6.66538 121.942 7.00161 122.053 7.38225C122.163 7.76289 122.219 8.14776 122.219 8.53474C122.219 8.92173 122.184 9.3066 122.116 9.68723C122.048 10.0679 121.989 10.402 121.938 10.6875L120.283 18.3848H115.496L117.049 11.0914C117.1 10.8714 117.151 10.6071 117.202 10.2941C117.253 9.98117 117.244 9.68512 117.176 9.4081C117.108 9.13108 116.964 8.89424 116.742 8.69969C116.521 8.50514 116.166 8.40786 115.673 8.40786C115.128 8.40786 114.688 8.52628 114.348 8.76313C114.008 8.99997 113.74 9.27065 113.546 9.57304C113.351 9.87544 113.206 10.1757 113.112 10.4718C113.019 10.7678 112.963 10.9751 112.946 11.0914L111.394 18.3848H106.633L108.772 8.38249H108.774Z" fill="#CCCCCC"/>
<path d="M133.628 10.1292C133.764 9.53922 133.751 9.02747 133.589 8.5982C133.428 8.1668 133.032 7.95322 132.405 7.95322C131.963 7.95322 131.582 8.05896 131.259 8.26831C130.935 8.47977 130.657 8.76314 130.419 9.11629C130.18 9.47155 129.976 9.89237 129.808 10.383C129.638 10.8736 129.494 11.3959 129.374 11.952C129.187 12.7789 129.094 13.4556 129.094 13.9779C129.094 14.5002 129.158 14.9147 129.285 15.2192C129.413 15.5216 129.591 15.7288 129.819 15.8388C130.049 15.9488 130.317 16.0037 130.621 16.0037C131.029 16.0037 131.367 15.9149 131.639 15.7373C131.912 15.5597 132.133 15.3419 132.301 15.0796C132.471 14.8174 132.603 14.5362 132.696 14.2317C132.79 13.9271 132.862 13.6586 132.913 13.4217H137.751C137.581 14.2317 137.271 14.9612 136.822 15.6125C136.371 16.2638 135.816 16.8158 135.155 17.2704C134.493 17.7272 133.736 18.0761 132.888 18.3214C132.039 18.5667 131.131 18.6894 130.163 18.6894C129.145 18.6894 128.228 18.554 127.414 18.2833C126.599 18.0127 125.927 17.6003 125.402 17.042C124.877 16.4838 124.524 15.7838 124.345 14.9401C124.166 14.0963 124.196 13.1003 124.434 11.952C124.707 10.7023 125.134 9.64707 125.721 8.7864C126.306 7.92573 126.991 7.23424 127.771 6.7098C128.552 6.18748 129.392 5.81107 130.291 5.58269C131.191 5.3543 132.09 5.24011 132.99 5.24011C133.33 5.24011 133.715 5.26126 134.149 5.30355C134.583 5.34585 135.019 5.43043 135.461 5.5552C135.901 5.68208 136.326 5.86394 136.735 6.10078C137.143 6.33762 137.49 6.65905 137.779 7.06295C137.983 7.35055 138.136 7.63602 138.238 7.92362C138.34 8.21121 138.404 8.49035 138.43 8.75891C138.455 9.02959 138.455 9.27912 138.43 9.50539C138.404 9.73377 138.383 9.94101 138.366 10.125L133.63 10.125L133.628 10.1292Z" fill="#CCCCCC"/>
<path d="M142.03 5.67153L146.817 5.67153L144.093 18.3828H139.306L142.03 5.67153ZM143.151 0.150146L148.04 0.150146L147.327 3.54418L142.438 3.54418L143.151 0.150146Z" fill="#CCCCCC"/>
<path d="M155.704 18.3849C155.704 18.148 155.721 17.8879 155.755 17.6003C155.789 17.3127 155.849 16.968 155.934 16.562C155.746 16.7819 155.521 17.0146 155.259 17.2577C154.996 17.503 154.683 17.7272 154.317 17.9281C153.952 18.1311 153.524 18.3003 153.031 18.4356C152.537 18.5709 151.961 18.6386 151.3 18.6386C150.519 18.6386 149.864 18.5371 149.339 18.3341C148.812 18.1311 148.401 17.852 148.103 17.4988C147.806 17.1436 147.623 16.727 147.557 16.2448C147.489 15.7627 147.514 15.2446 147.633 14.6884C147.821 13.8278 148.171 13.0982 148.69 12.4976C149.207 11.8992 149.883 11.417 150.715 11.0533C151.546 10.6896 152.518 10.4422 153.63 10.3068C154.743 10.1715 155.976 10.1292 157.335 10.18C157.403 9.84162 157.458 9.51385 157.501 9.19242C157.543 8.87311 157.535 8.58974 157.475 8.34444C157.416 8.09914 157.293 7.90671 157.105 7.76291C156.918 7.61911 156.646 7.54721 156.291 7.54721C155.849 7.54721 155.421 7.68678 155.004 7.96592C154.587 8.24505 154.313 8.74623 154.177 9.47156H149.594C149.628 9.3193 149.675 9.14378 149.735 8.94078C149.794 8.73777 149.879 8.52207 149.99 8.29369C150.1 8.06531 150.249 7.82424 150.436 7.57259C150.623 7.31883 150.86 7.06507 151.149 6.81343C151.759 6.30591 152.563 5.9147 153.556 5.63556C154.549 5.35643 155.632 5.21686 156.803 5.21686C157.093 5.21686 157.444 5.23378 157.86 5.26761C158.275 5.30144 158.7 5.36911 159.134 5.47062C159.568 5.57212 159.987 5.72015 160.395 5.9147C160.804 6.10925 161.142 6.36723 161.414 6.68655C161.754 7.07565 161.943 7.55567 161.986 8.13086C162.028 8.70394 161.973 9.33833 161.82 10.0298L160.546 15.9551C160.495 16.192 160.457 16.3886 160.431 16.5493C160.406 16.71 160.385 16.875 160.368 17.0442C160.351 17.2133 160.338 17.3994 160.329 17.6003C160.321 17.8033 160.308 18.0655 160.291 18.3849H155.708H155.704ZM156.825 12.3834C156.316 12.3834 155.819 12.3961 155.334 12.4215C154.849 12.4469 154.409 12.5188 154.009 12.6372C153.609 12.7556 153.275 12.9417 153.003 13.1955C152.731 13.4492 152.544 13.8024 152.444 14.2592C152.342 14.7307 152.401 15.1367 152.622 15.4751C152.844 15.8134 153.241 15.9805 153.82 15.9805C154.075 15.9805 154.409 15.9044 154.826 15.7521C155.24 15.5998 155.619 15.2721 155.959 14.7646C156.248 14.3585 156.455 13.9293 156.582 13.4725C156.71 13.0157 156.791 12.6541 156.825 12.3834Z" fill="#CCCCCC"/>
<path d="M67.4219 44.9957L78.7971 26.7103H85.1365L88.5646 44.9979H82.6952L82.2018 41.3247H74.6949L72.6172 44.9979H61.7863C61.7523 44.3191 61.8459 42.9361 62.0713 40.8489C62.1415 40.1193 62.1755 39.6182 62.1755 39.3475C62.1755 38.7871 62.033 38.3917 61.7459 38.1633C61.461 37.9349 60.9017 37.8207 60.0702 37.8207H57.8883L56.3294 44.9979L51.1086 44.9979L55.0833 26.6193L63.7577 26.6193C65.2463 26.6193 66.2331 26.6532 66.7179 26.7208C67.8961 26.89 68.7361 27.2981 69.238 27.9431C69.7058 28.5204 69.9398 29.2415 69.9398 30.1064C69.9398 30.5463 69.8866 31.0136 69.7845 31.5063C69.4379 33.0839 68.6149 34.2215 67.3155 34.9173C66.467 35.3761 65.4462 35.6891 64.2511 35.8583L64.2256 35.9598C65.576 35.9936 66.4947 36.258 66.9795 36.7486C67.3942 37.1567 67.6026 37.844 67.6026 38.8104C67.6026 39.1339 67.5771 39.6858 67.5261 40.4661C67.3708 42.7373 67.3347 44.2472 67.4219 44.9936M89.7087 44.9957L93.6834 26.6236L107.762 26.6236L107.009 30.1445L98.0727 30.1445L97.2412 33.972H105.656L104.878 37.4929H96.4607L95.6292 41.422H104.772L103.993 44.9936H89.7066L89.7087 44.9957ZM17.0616 44.9957L21.0341 26.6236L35.1122 26.6236L34.3594 30.1445L25.4234 30.1445L24.5919 33.972L33.009 33.972L32.2286 37.4929L23.8136 37.4929L22.982 41.422L32.1265 41.422L31.3481 44.9936H17.0616V44.9957ZM0.174138 39.0091H5.31841C5.25036 39.3327 5.21633 39.6012 5.21633 39.8127C5.21633 41.0942 6.08612 41.7349 7.82781 41.7349C9.56951 41.7349 10.7179 41.0688 11.0262 39.7387C11.0603 39.578 11.0773 39.4236 11.0773 39.2756C11.0773 38.675 10.652 38.2605 9.79706 38.0343L5.52469 36.9135C3.10248 36.2812 1.89244 35.0547 1.89244 33.2382C1.89244 32.8808 1.93497 32.5002 2.02004 32.0942C2.37731 30.5357 3.27474 29.2627 4.70595 28.273C6.32643 27.1522 8.4339 26.594 11.0262 26.594C15.3581 26.594 17.5252 27.9241 17.5252 30.5864C17.5252 31.0242 17.4571 31.5613 17.321 32.1936H12.1257C12.2108 31.8679 12.2533 31.593 12.2533 31.3646C12.2533 30.2946 11.5877 29.7575 10.2585 29.7575C9.52485 29.7575 8.89325 29.9309 8.36585 30.2819C7.83632 30.6308 7.52158 31.0728 7.4195 31.6078C7.38548 31.7537 7.36846 31.8912 7.36846 32.0223C7.36846 32.6884 7.87247 33.1515 8.87836 33.4095L12.1278 34.2617C13.5441 34.6339 14.533 35.0082 15.0966 35.3804C16.0535 35.9979 16.5299 36.8902 16.5299 38.0575C16.5299 38.4466 16.4789 38.8696 16.3768 39.3242C15.9664 41.2063 14.8669 42.6421 13.0763 43.6339C11.4388 44.5432 9.39938 44.9979 6.96016 44.9979C3.80426 44.9979 1.72231 44.3 0.716424 42.9043C0.240063 42.2551 -0.000244141 41.46 -0.000244141 40.519C-0.000244141 40.1299 0.059301 39.6266 0.178391 39.0091M33.362 44.9979L37.3197 26.5665H47.4679C47.7911 26.5918 48.0676 26.6257 48.2994 26.6637C49.4924 26.8858 50.4026 27.3299 51.0257 27.996C51.5956 28.6113 51.8827 29.3557 51.8827 30.2269C51.8827 30.5336 51.8487 30.8508 51.7785 31.1764C51.3106 33.3144 49.6731 34.7143 46.8681 35.3825L46.8426 35.4332C49.284 35.8773 50.5047 37.0235 50.5047 38.8696C50.5047 40.0326 50.175 41.0878 49.5179 42.0373C48.8587 42.9868 47.9804 43.7164 46.8809 44.2302C45.7814 44.742 44.0355 45 41.6473 45H33.362V44.9979ZM41.675 29.8442L40.7924 33.9466H43.2338C44.1525 33.9466 44.7756 33.8705 45.1052 33.7161C45.8325 33.3588 46.2833 32.7603 46.4556 31.9229C46.6108 31.2039 46.4896 30.6583 46.0919 30.2819C45.7793 29.9922 45.2519 29.8463 44.5076 29.8463H41.675V29.8442ZM40.0906 37.2286L39.1549 41.6144H42.0386C43.8228 41.6144 44.8713 40.8954 45.1817 39.4596C45.2328 39.2375 45.2604 39.0324 45.2604 38.8442C45.2604 37.7678 44.4459 37.2286 42.817 37.2286H40.0906ZM76.6492 37.956H81.7403L80.9875 30.2819H80.9088L76.6492 37.956ZM59.5853 30.0049L58.6241 34.5113H60.572C61.68 34.5113 62.4073 34.4605 62.7539 34.359C63.7407 34.0714 64.3468 33.3736 64.5722 32.2718C64.6232 32.035 64.6488 31.8235 64.6488 31.6353C64.6488 30.9227 64.3021 30.4469 63.6088 30.21C63.1941 30.0747 62.5009 30.007 61.5311 30.007H59.5832L59.5853 30.0049Z" fill="#005EB8"/>
</svg>
