<?xml version="1.0" encoding="UTF-8"?>
<svg id="Camada_2" data-name="Camada 2" xmlns="http://www.w3.org/2000/svg" viewBox="0 0 761.77 212.79">
  <g id="Camada_1-2" data-name="Camada 1">
    <g>
      <g>
        <path d="m40.44.48h24.67l-18.32,86.46h-24.67L40.44.48Z"/>
        <path d="m72.53,39.64l2.16-12.81h22.51l-1.8,9.22c.96-1.12,2.05-2.29,3.29-3.53,1.24-1.24,2.75-2.38,4.55-3.41,1.8-1.04,3.87-1.9,6.23-2.58,2.35-.68,5.09-1.02,8.2-1.02,3.67,0,6.67.42,8.98,1.26,2.31.84,4.15,1.96,5.51,3.35,1.36,1.4,2.29,2.99,2.81,4.79.52,1.8.78,3.62.78,5.45s-.16,3.65-.48,5.45c-.32,1.8-.6,3.38-.84,4.73l-7.78,36.4h-22.51l7.3-34.49c.24-1.04.48-2.29.72-3.77.24-1.48.2-2.88-.12-4.19-.32-1.31-1-2.43-2.04-3.35-1.04-.92-2.71-1.38-5.03-1.38-2.56,0-4.63.56-6.23,1.68-1.6,1.12-2.86,2.4-3.77,3.83-.92,1.43-1.6,2.85-2.04,4.25-.44,1.4-.7,2.38-.78,2.93l-7.3,34.49h-22.39l10.06-47.3Z"/>
        <path d="m196.58,27.06l-2.99,14.37h-14.49l-4.43,20.84c-.4,1.84-.68,3.43-.84,4.79-.16,1.36-.06,2.48.3,3.35.36.88,1.08,1.54,2.16,1.98,1.08.44,2.69.66,4.85.66.88,0,1.7-.02,2.45-.06.76-.04,1.82-.14,3.17-.3l-2.99,14.13c-1.6.24-3.51.48-5.75.72-2.24.24-5.27.36-9.1.36-4.47,0-8.02-.38-10.66-1.14-2.63-.76-4.59-1.87-5.87-3.35-1.28-1.48-1.96-3.31-2.04-5.51-.08-2.19.2-4.73.84-7.6l6.11-28.86h-11.38l2.99-14.37h11.73l2.04-9.34,23.47-8.62-3.83,17.96h14.25Z"/>
        <path d="m218.5,61.43c-.16.8-.34,2.02-.54,3.65-.2,1.64-.12,3.26.24,4.85.36,1.6,1.18,3.01,2.46,4.25,1.28,1.24,3.35,1.86,6.23,1.86,3.03,0,5.61-.76,7.72-2.28,2.11-1.51,3.61-3.67,4.49-6.47h20.96c-1.2,3.75-3.01,6.97-5.45,9.64-2.44,2.68-5.25,4.85-8.44,6.53-3.19,1.68-6.67,2.9-10.42,3.65-3.75.76-7.59,1.14-11.49,1.14-10.54,0-18-2.58-22.39-7.72-4.39-5.15-5.51-12.71-3.35-22.69,1.04-5.03,2.61-9.58,4.73-13.65,2.11-4.07,4.79-7.56,8.02-10.48,3.23-2.91,7.04-5.15,11.44-6.71,4.39-1.56,9.34-2.34,14.85-2.34,4.15,0,7.7.4,10.66,1.2,2.95.8,5.43,1.9,7.42,3.29,1.99,1.4,3.55,3.02,4.67,4.85,1.12,1.84,1.96,3.83,2.52,5.99.8,2.55,1.08,5.45.84,8.68-.24,3.23-.92,7.48-2.04,12.75h-43.11Zm24.55-12.22c.08-.88.18-2.02.3-3.41.12-1.39-.04-2.77-.48-4.13-.44-1.36-1.26-2.53-2.45-3.53-1.2-1-3.04-1.49-5.51-1.49s-4.53.52-6.17,1.55c-1.64,1.04-2.96,2.26-3.95,3.65-1,1.4-1.76,2.79-2.28,4.19-.52,1.4-.9,2.46-1.14,3.17h21.67Z"/>
        <path d="m287.59.48h22.51l-18.32,86.46h-22.51L287.59.48Z"/>
        <path d="m321.95,26.82h22.51l-12.81,60.11h-22.51l12.81-60.11Zm5.27-26.11h22.99l-3.35,16.05h-22.99l3.35-16.05Z"/>
        <path d="m426.01,26.46l-11.85,56.04c-.4,1.84-.92,3.71-1.56,5.63-.64,1.92-1.5,3.79-2.58,5.63-1.08,1.84-2.44,3.63-4.07,5.39-1.64,1.76-3.61,3.35-5.93,4.79-3.03,1.84-6.61,3.41-10.72,4.73-4.11,1.32-9.28,1.98-15.51,1.98-1.68,0-3.59-.08-5.75-.24-2.16-.16-4.31-.5-6.47-1.02-2.16-.52-4.23-1.24-6.23-2.16-2-.92-3.71-2.14-5.15-3.65-1.04-1.2-1.78-2.41-2.22-3.65-.44-1.24-.72-2.46-.84-3.65-.12-1.2-.12-2.32,0-3.35.12-1.04.26-1.96.42-2.75h21.2c-.4,2.31.06,4.17,1.38,5.57,1.32,1.39,3.61,2.1,6.89,2.1,2.79,0,5.09-.46,6.89-1.38,1.8-.92,3.23-2.1,4.31-3.53s1.9-3.02,2.46-4.73c.56-1.72,1.04-3.37,1.44-4.97l1.68-7.9c-2.08,2.32-4.19,4.11-6.35,5.39-2.16,1.28-4.21,2.23-6.17,2.87-1.96.64-3.73,1.04-5.33,1.2-1.6.16-2.83.24-3.71.24-3.19,0-6.27-.52-9.22-1.56-2.95-1.04-5.45-2.73-7.48-5.09-2.04-2.35-3.45-5.43-4.25-9.22-.8-3.79-.6-8.44.6-13.95.88-4.07,2.23-7.92,4.07-11.55,1.83-3.63,4.17-6.78,7-9.46,2.83-2.67,6.11-4.81,9.82-6.41,3.71-1.6,7.84-2.4,12.39-2.4,2.87,0,5.33.3,7.36.9,2.04.6,3.75,1.4,5.15,2.4,1.4,1,2.5,2.1,3.29,3.29.8,1.2,1.44,2.4,1.92,3.59l1.92-9.1h21.2Zm-28.26,28.26c.16-.8.38-2.11.66-3.95.28-1.84.28-3.71,0-5.63-.28-1.92-1-3.59-2.16-5.03-1.16-1.44-3.09-2.16-5.81-2.16-3.83,0-7.05,1.58-9.64,4.73-2.59,3.15-4.45,7.24-5.57,12.28-.4,1.6-.68,3.37-.84,5.33-.16,1.96-.02,3.77.42,5.45.44,1.68,1.3,3.09,2.57,4.25,1.28,1.16,3.15,1.74,5.63,1.74,2.71,0,4.97-.68,6.77-2.04,1.8-1.36,3.25-2.97,4.37-4.85,1.12-1.87,1.93-3.75,2.46-5.63.52-1.88.9-3.37,1.14-4.49Z"/>
        <path d="m451.27,61.43c-.16.8-.34,2.02-.54,3.65-.2,1.64-.12,3.26.24,4.85.36,1.6,1.18,3.01,2.46,4.25,1.28,1.24,3.35,1.86,6.23,1.86,3.03,0,5.61-.76,7.72-2.28,2.11-1.51,3.61-3.67,4.49-6.47h20.96c-1.2,3.75-3.01,6.97-5.45,9.64-2.44,2.68-5.25,4.85-8.44,6.53-3.19,1.68-6.67,2.9-10.42,3.65-3.75.76-7.59,1.14-11.49,1.14-10.54,0-18-2.58-22.39-7.72-4.39-5.15-5.51-12.71-3.35-22.69,1.04-5.03,2.61-9.58,4.73-13.65,2.11-4.07,4.79-7.56,8.02-10.48,3.23-2.91,7.04-5.15,11.44-6.71,4.39-1.56,9.34-2.34,14.85-2.34,4.15,0,7.7.4,10.66,1.2,2.95.8,5.43,1.9,7.42,3.29,1.99,1.4,3.55,3.02,4.67,4.85,1.12,1.84,1.96,3.83,2.52,5.99.8,2.55,1.08,5.45.84,8.68-.24,3.23-.92,7.48-2.04,12.75h-43.11ZM485.28,0l10.66,17.36h-15.57l-6.83-9.22-10.9,9.22h-15.57L465.05,0h20.24Zm-9.46,49.22c.08-.88.18-2.02.3-3.41.12-1.39-.04-2.77-.48-4.13-.44-1.36-1.26-2.53-2.45-3.53-1.2-1-3.04-1.49-5.51-1.49s-4.53.52-6.17,1.55c-1.64,1.04-2.96,2.26-3.95,3.65-1,1.4-1.76,2.79-2.28,4.19-.52,1.4-.9,2.46-1.14,3.17h21.67Z"/>
        <path d="m511.51,39.64l2.16-12.81h22.51l-1.8,9.22c.96-1.12,2.05-2.29,3.29-3.53,1.24-1.24,2.75-2.38,4.55-3.41,1.8-1.04,3.87-1.9,6.23-2.58,2.35-.68,5.09-1.02,8.2-1.02,3.67,0,6.67.42,8.98,1.26,2.31.84,4.15,1.96,5.51,3.35,1.36,1.4,2.29,2.99,2.81,4.79.52,1.8.78,3.62.78,5.45s-.16,3.65-.48,5.45c-.32,1.8-.6,3.38-.84,4.73l-7.78,36.4h-22.51l7.3-34.49c.24-1.04.48-2.29.72-3.77.24-1.48.2-2.88-.12-4.19-.32-1.31-1-2.43-2.04-3.35-1.04-.92-2.71-1.38-5.03-1.38-2.56,0-4.63.56-6.23,1.68-1.6,1.12-2.86,2.4-3.77,3.83-.92,1.43-1.6,2.85-2.04,4.25-.44,1.4-.7,2.38-.78,2.93l-7.3,34.49h-22.39l10.06-47.3Z"/>
        <path d="m628.38,47.9c.64-2.79.58-5.21-.18-7.24-.76-2.04-2.62-3.05-5.57-3.05-2.08,0-3.87.5-5.39,1.49-1.52,1-2.83,2.34-3.95,4.01-1.12,1.68-2.08,3.67-2.87,5.99-.8,2.32-1.48,4.79-2.04,7.42-.88,3.91-1.32,7.11-1.32,9.58s.3,4.43.9,5.87c.6,1.43,1.44,2.41,2.51,2.93,1.08.52,2.34.78,3.77.78,1.92,0,3.51-.42,4.79-1.26,1.28-.84,2.32-1.87,3.11-3.11.8-1.24,1.42-2.57,1.86-4.01.44-1.44.78-2.71,1.02-3.83h22.75c-.8,3.83-2.26,7.28-4.37,10.36-2.12,3.08-4.73,5.69-7.84,7.84-3.11,2.16-6.67,3.81-10.66,4.97-3.99,1.16-8.26,1.74-12.81,1.74-4.79,0-9.1-.64-12.93-1.92-3.83-1.28-6.99-3.23-9.46-5.87-2.47-2.64-4.13-5.95-4.97-9.94-.84-3.99-.7-8.7.42-14.13,1.28-5.91,3.29-10.9,6.05-14.97,2.75-4.07,5.97-7.34,9.64-9.82,3.67-2.47,7.62-4.25,11.85-5.33,4.23-1.08,8.46-1.62,12.69-1.62,1.6,0,3.41.1,5.45.3,2.04.2,4.09.6,6.17,1.19,2.07.6,4.07,1.46,5.99,2.58,1.92,1.12,3.55,2.64,4.91,4.55.96,1.36,1.68,2.71,2.16,4.07.48,1.36.78,2.68.9,3.95.12,1.28.12,2.46,0,3.53-.12,1.08-.22,2.06-.3,2.93h-22.27Z"/>
        <path d="m667.89,26.82h22.51l-12.81,60.11h-22.51l12.81-60.11Zm5.27-26.11h22.99l-3.35,16.05h-22.99l3.35-16.05Z"/>
        <path d="m732.19,86.94c0-1.12.08-2.35.24-3.71.16-1.36.44-2.99.84-4.91-.88,1.04-1.94,2.14-3.17,3.29-1.24,1.16-2.71,2.22-4.43,3.17-1.72.96-3.73,1.76-6.05,2.4-2.32.64-5.03.96-8.14.96-3.67,0-6.75-.48-9.22-1.44-2.48-.96-4.41-2.28-5.81-3.95-1.4-1.68-2.26-3.65-2.57-5.93-.32-2.28-.2-4.73.36-7.36.88-4.07,2.53-7.52,4.97-10.36,2.43-2.83,5.61-5.11,9.52-6.83,3.91-1.72,8.48-2.89,13.71-3.53,5.23-.64,11.03-.84,17.42-.6.32-1.6.58-3.15.78-4.67.2-1.51.16-2.85-.12-4.01-.28-1.16-.86-2.07-1.74-2.75-.88-.68-2.16-1.02-3.83-1.02-2.08,0-4.09.66-6.05,1.98-1.96,1.32-3.25,3.69-3.89,7.12h-21.55c.16-.72.38-1.55.66-2.51.28-.96.68-1.98,1.2-3.06.52-1.08,1.22-2.22,2.1-3.41.88-1.2,1.99-2.4,3.35-3.59,2.87-2.4,6.65-4.25,11.32-5.57,4.67-1.32,9.76-1.98,15.27-1.98,1.36,0,3.01.08,4.97.24,1.95.16,3.95.48,5.99.96,2.04.48,4.01,1.18,5.93,2.1,1.92.92,3.51,2.14,4.79,3.65,1.6,1.84,2.49,4.11,2.69,6.83.2,2.71-.06,5.71-.78,8.98l-5.99,28.02c-.24,1.12-.42,2.05-.54,2.81-.12.76-.22,1.54-.3,2.34-.08.8-.14,1.68-.18,2.63-.04.96-.1,2.2-.18,3.71h-21.55Zm5.27-28.38c-2.39,0-4.73.06-7.01.18-2.28.12-4.35.46-6.23,1.02-1.88.56-3.45,1.44-4.73,2.64-1.28,1.2-2.16,2.87-2.63,5.03-.48,2.23-.2,4.15.84,5.75,1.04,1.6,2.91,2.39,5.63,2.39,1.2,0,2.77-.36,4.73-1.08,1.95-.72,3.73-2.27,5.33-4.67,1.36-1.92,2.33-3.95,2.93-6.11.6-2.16.98-3.87,1.14-5.15Z"/>
      </g>
      <path d="m317.06,212.78l53.49-86.47h29.81l16.12,86.48h-27.6l-2.32-17.37h-35.3l-9.77,17.37h-50.93c-.16-3.21.28-9.75,1.34-19.62.33-3.45.49-5.82.49-7.1,0-2.65-.67-4.52-2.02-5.6-1.34-1.08-3.97-1.62-7.88-1.62h-10.26l-7.33,33.94h-24.55l18.69-86.91h40.79c7,0,11.64.16,13.92.48,5.54.8,9.49,2.73,11.85,5.78,2.2,2.73,3.3,6.14,3.3,10.23,0,2.08-.25,4.29-.73,6.62-1.63,7.46-5.5,12.84-11.61,16.13-3.99,2.17-8.79,3.65-14.41,4.45l-.12.48c6.35.16,10.67,1.41,12.95,3.73,1.95,1.93,2.93,5.18,2.93,9.75,0,1.53-.12,4.14-.36,7.83-.73,10.74-.9,17.88-.49,21.41m104.8.01l18.69-86.88h66.2l-3.54,16.65h-42.02l-3.91,18.1h39.57l-3.66,16.65h-39.58l-3.91,18.58h42.99l-3.66,16.89h-67.18Zm-341.61,0l18.68-86.88h66.2l-3.54,16.65h-42.02l-3.91,18.1h39.58l-3.67,16.65h-39.57l-3.91,18.58h43l-3.66,16.89h-67.18ZM.84,184.47h24.19c-.32,1.53-.48,2.8-.48,3.8,0,6.06,4.09,9.09,12.28,9.09s13.59-3.15,15.04-9.44c.16-.76.24-1.49.24-2.19,0-2.84-2-4.8-6.02-5.87l-20.09-5.3c-11.39-2.99-17.08-8.79-17.08-17.38,0-1.69.2-3.49.6-5.41,1.68-7.37,5.9-13.39,12.63-18.07,7.62-5.3,17.53-7.94,29.72-7.94,20.37,0,30.56,6.29,30.56,18.88,0,2.07-.32,4.61-.96,7.6h-24.43c.4-1.54.6-2.84.6-3.92,0-5.06-3.13-7.6-9.38-7.6-3.45,0-6.42.82-8.9,2.48-2.49,1.65-3.97,3.74-4.45,6.27-.16.69-.24,1.34-.24,1.96,0,3.15,2.37,5.34,7.1,6.56l15.28,4.03c6.66,1.76,11.31,3.53,13.96,5.29,4.5,2.92,6.74,7.14,6.74,12.66,0,1.84-.24,3.84-.72,5.99-1.93,8.9-7.1,15.69-15.52,20.38-7.7,4.3-17.29,6.45-28.76,6.45-14.84,0-24.63-3.3-29.36-9.9-2.24-3.07-3.37-6.83-3.37-11.28,0-1.84.28-4.22.84-7.14m156.04,28.32l18.61-87.16h47.72c1.52.12,2.82.28,3.91.46,5.61,1.05,9.89,3.15,12.82,6.3,2.68,2.91,4.03,6.43,4.03,10.55,0,1.45-.16,2.95-.49,4.49-2.2,10.11-9.9,16.73-23.09,19.89l-.12.24c11.48,2.1,17.22,7.52,17.22,16.25,0,5.5-1.55,10.49-4.64,14.98-3.1,4.49-7.23,7.94-12.4,10.37-5.17,2.42-13.38,3.64-24.61,3.64h-38.96Zm39.09-71.66l-4.15,19.4h11.48c4.32,0,7.25-.36,8.8-1.09,3.42-1.69,5.54-4.52,6.35-8.48.73-3.4.16-5.98-1.71-7.76-1.47-1.37-3.95-2.06-7.45-2.06h-13.32Zm-7.45,34.92l-4.4,20.74h13.56c8.39,0,13.32-3.4,14.78-10.19.24-1.05.37-2.02.37-2.91,0-5.09-3.83-7.64-11.49-7.64h-12.82Zm171.91,3.44h23.94l-3.54-36.29h-.37l-20.03,36.29Zm-80.24-37.6l-4.52,21.31h9.16c5.21,0,8.63-.24,10.26-.72,4.64-1.36,7.49-4.66,8.55-9.87.24-1.12.36-2.12.36-3.01,0-3.37-1.63-5.62-4.89-6.74-1.95-.64-5.21-.96-9.77-.96h-9.16Z"/>
    </g>
  </g>
</svg>